<?xml version="1.0" encoding="UTF-8"?>
<svg width="1500px" height="1500px" viewBox="0 0 1500 1500" version="1.1" xmlns="http://www.w3.org/2000/svg" xmlns:xlink="http://www.w3.org/1999/xlink">
    <!-- Generator: Sketch 51.3 (57544) - http://www.bohemiancoding.com/sketch -->
    <title>favicon</title>
    <desc>Created with Sketch.</desc>
    <defs>
        <linearGradient x1="-1.16707949%" y1="75.9779903%" x2="101.159649%" y2="24.0220097%" id="linearGradient-1">
            <stop stop-color="#212527" offset="0%"></stop>
            <stop stop-color="#212527" offset="16.8627%"></stop>
            <stop stop-color="#FFFFFF" offset="49.0196%"></stop>
            <stop stop-color="#212527" offset="100%"></stop>
        </linearGradient>
    </defs>
    <g id="favicon" stroke="none" stroke-width="1" fill="none" fill-rule="evenodd">
        <g id="Group">
            <circle id="Circle" fill="#212527" cx="750" cy="750" r="750"></circle>
            <g id="icon" transform="translate(450.000000, 345.000000)" fill-rule="nonzero">
                <path d="M281.228568,1.10667227 L281.228568,332.231896 C257.281834,304.798811 221.844177,288.14614 173.336691,288.14614 C78.5146437,288.14614 0.271103924,371.321851 0.271103924,479.125987 C0.271103924,586.930122 78.5146437,670.105834 173.336691,670.105834 C221.844177,670.105834 257.281834,653.453162 281.228568,625.932432 L281.228568,659.93894 L389.82218,659.93894 L389.82218,1.10667227 L281.228568,1.10667227 Z M195.002784,567.385145 C145.091826,567.385145 108.864716,533.378637 108.864716,479.125987 C108.864716,424.873336 145.091826,390.866828 195.002784,390.866828 C245.001458,390.866828 281.228568,424.873336 281.228568,479.125987 C281.228568,533.378637 245.001458,567.385145 195.002784,567.385145 Z" id="d" fill="url(#linearGradient-1)"></path>
                <path d="M530.958789,670.105834 C568.589371,670.105834 599.728896,638.991632 599.728896,601.391653 C599.728896,563.791674 568.589371,532.677472 530.958789,532.677472 C493.328208,532.677472 462.188683,563.791674 462.188683,601.391653 C462.188683,638.991632 493.328208,670.105834 530.958789,670.105834 Z" id="dot" fill="#EB4444"></path>
            </g>
        </g>
    </g>
</svg>