<?xml version="1.0" encoding="UTF-8"?>
<svg width="1300px" height="533px" viewBox="0 0 1300 533" version="1.1" xmlns="http://www.w3.org/2000/svg" xmlns:xlink="http://www.w3.org/1999/xlink">
    <!-- Generator: Sketch 51.3 (57544) - http://www.bohemiancoding.com/sketch -->
    <title>logo-trimmed</title>
    <desc>Created with Sketch.</desc>
    <defs></defs>
    <g id="Logos-v2" stroke="none" stroke-width="1" fill="none" fill-rule="evenodd">
        <g id="logo-musicbydarcy" transform="translate(-100.000000, -484.000000)" fill-rule="nonzero">
            <g id="logo-trimmed" transform="translate(100.000000, 484.000000)">
                <g id="darcy." transform="translate(0.000000, 108.000000)">
                    <path d="M182.841279,0.171548918 L182.841279,116.556768 C167.260195,98.6858128 144.212139,87.833812 112.601953,87.833812 C50.8749761,87.833812 0,142.044036 0,212.233582 C0,282.423128 50.8749761,336.633352 112.601953,336.633352 C144.212139,336.633352 167.260195,325.781352 182.841279,307.910396 L182.841279,330.012636 L253.528623,330.012636 L253.528623,0.171548918 L182.841279,0.171548918 Z M126.739422,269.729274 C94.2331993,269.729274 70.6873444,247.577254 70.6873444,212.233582 C70.6873444,176.88991 94.2331993,154.73789 126.739422,154.73789 C159.245644,154.73789 182.841279,176.88991 182.841279,212.233582 C182.841279,247.577254 159.245644,269.729274 126.739422,269.729274 Z" id="Shape" fill="#212527"></path>
                    <path d="M467.830749,94.4047482 L467.830749,116.556768 C452.249665,98.6858128 429.151828,87.833812 397.591423,87.833812 C335.864446,87.833812 284.98947,142.044036 284.98947,212.233582 C284.98947,282.423128 335.864446,336.633352 397.591423,336.633352 C429.151828,336.633352 452.249665,325.781352 467.830749,307.910396 L467.830749,330.012636 L538.518093,330.012636 L538.518093,94.4047482 L467.830749,94.4047482 Z M411.728891,269.729274 C379.222669,269.729274 355.676814,247.577254 355.676814,212.233582 C355.676814,176.88991 379.222669,154.73789 411.728891,154.73789 C444.235114,154.73789 467.830749,176.88991 467.830749,212.233582 C467.830749,247.577254 444.235114,269.729274 411.728891,269.729274 Z" id="Shape" fill="#212527"></path>
                    <path d="M661.02623,136.369137 L661.02623,94.4047482 L590.338886,94.4047482 L590.338886,330.012636 L661.02623,330.012636 L661.02623,223.533601 C661.02623,176.88991 702.49282,165.092093 731.713575,169.821176 L731.713575,89.7254451 C701.995022,89.7254451 670.434616,104.808731 661.02623,136.369137 Z" id="Shape" fill="#212527"></path>
                    <path d="M870.698832,336.633352 C916.894505,336.633352 956.96726,312.589699 977.227647,275.852192 L915.50067,240.50852 C907.934137,256.98564 890.5112,266.891825 869.753016,266.891825 C839.138426,266.891825 816.538388,244.739805 816.538388,212.233582 C816.538388,179.72736 839.138426,157.57534 869.753016,157.57534 C890.5112,157.57534 907.486119,167.481524 915.50067,183.958644 L977.227647,148.166954 C956.96726,111.877465 916.396707,87.833812 870.698832,87.833812 C799.065671,87.833812 745.851043,142.044036 745.851043,212.233582 C745.851043,282.423128 799.065671,336.633352 870.698832,336.633352 Z" id="Shape" fill="#212527"></path>
                    <path d="M1156.28566,94.4047482 L1111.98162,238.616887 L1059.66303,94.4047482 L981.90695,94.4047482 L1075.69213,319.210415 C1065.33793,347.933372 1049.75684,358.287574 1016.8026,358.287574 L1016.8026,424.295616 C1082.76087,427.581084 1124.67547,397.912311 1151.10856,322.943902 L1231.65231,94.4047482 L1156.28566,94.4047482 Z" id="Shape" fill="#212527"></path>
                    <path d="M1255.19816,336.633352 C1279.73961,336.633352 1300,316.372966 1300,291.881294 C1300,267.339843 1279.73961,247.079456 1255.19816,247.079456 C1230.70649,247.079456 1210.4461,267.339843 1210.4461,291.881294 C1210.4461,316.372966 1230.70649,336.633352 1255.19816,336.633352 Z" id="Shape" fill="#EB4444"></path>
                </g>
                <g id="musicby" transform="translate(369.000000, 0.000000)">
                    <path d="M553.220946,33.4520391 L527.23588,99.9578786 L497.069309,33.4520391 L489.004978,33.4520391 L523.353054,109.515604 L521.71032,113.547769 C517.080796,124.44955 509.464484,131.966303 499.45874,131.070266 L499.45874,138.089221 C512.301934,139.134597 523.353054,129.377752 529.027953,115.041164 L561.285277,33.4520391 L553.220946,33.4520391 Z" id="Shape" fill="#212527"></path>
                    <path d="M444.750718,31.809305 C430.26479,31.809305 418.765652,39.276278 412.642734,50.8251962 L412.642734,3.58414704 L405.175761,3.58414704 L405.175761,108.171549 L412.642734,108.171549 L412.642734,90.8481715 C418.765652,102.34731 430.26479,109.814283 444.750718,109.814283 C466.106261,109.814283 483.479418,92.938924 483.479418,70.8366839 C483.479418,48.7344438 466.106261,31.809305 444.750718,31.809305 Z M444.3027,102.645989 C426.531304,102.645989 412.642734,88.6080796 412.642734,70.8366839 C412.642734,53.0652881 426.531304,38.9775991 444.3027,38.9775991 C462.074095,38.9775991 476.012445,53.0652881 476.012445,70.8366839 C476.012445,88.6080796 462.074095,102.645989 444.3027,102.645989 Z" id="Shape" fill="#212527"></path>
                    <path d="M358.38273,110.262301 C373.017997,110.262301 385.761631,102.645989 392.183228,90.997511 L372.569979,79.7970515 C370.180548,85.0239326 364.654988,88.1600613 358.084051,88.1600613 C348.376986,88.1600613 341.208692,81.1411066 341.208692,70.8366839 C341.208692,60.5322612 348.376986,53.5133065 358.084051,53.5133065 C364.654988,53.5133065 370.031208,56.6494352 372.569979,61.8763163 L392.183228,50.5265173 C385.761631,38.9775991 372.868658,31.3612866 358.38273,31.3612866 C335.683132,31.3612866 318.807773,48.5851043 318.807773,70.8366839 C318.807773,93.0882635 335.683132,110.262301 358.38273,110.262301 Z" id="Shape" fill="#212527"></path>
                    <polygon id="Shape" fill="#212527" points="283.713 108.171549 306.113919 108.171549 306.113919 33.4520391 283.713 33.4520391"></polygon>
                    <path d="M294.91346,26.8811028 C302.231093,26.8811028 308.354011,20.758185 308.354011,13.4405514 C308.354011,6.12291786 302.231093,0 294.91346,0 C287.595826,0 281.423128,6.12291786 281.423128,13.4405514 C281.423128,20.758185 287.595826,26.8811028 294.91346,26.8811028 Z" id="Shape" fill="#EB4444"></path>
                    <path d="M235.725254,55.30538 C235.725254,52.6172698 238.114685,51.1238752 241.997511,51.1238752 C246.925713,51.1238752 249.912502,53.8119854 252.003255,57.6948114 L271.118706,47.3903887 C264.846448,36.7375072 254.094007,31.3612866 241.997511,31.3612866 C226.466207,31.3612866 212.726977,39.5749569 212.726977,55.9027379 C212.726977,81.7384645 249.464484,77.4076201 249.464484,85.6212904 C249.464484,88.6080796 246.776374,90.2508137 241.400153,90.2508137 C234.829217,90.2508137 230.647712,87.114685 228.706299,81.4397856 L209.292169,92.4909056 C215.116408,104.587402 226.466207,110.262301 241.400153,110.262301 C257.528815,110.262301 272.462761,102.944668 272.462761,85.7706299 C272.462761,58.1428298 235.725254,63.8177293 235.725254,55.30538 Z" id="Shape" fill="#212527"></path>
                    <path d="M176.387708,33.4520391 L176.387708,74.2714915 C176.387708,84.8745931 170.712809,89.6534559 162.499138,89.6534559 C155.330844,89.6534559 149.506605,85.3226115 149.506605,76.063565 L149.506605,33.4520391 L127.105686,33.4520391 L127.105686,79.3490331 C127.105686,99.5098602 139.94888,110.262301 155.032165,110.262301 C164.88857,110.262301 172.355543,106.678154 176.387708,101.152594 L176.387708,108.171549 L198.838407,108.171549 L198.838407,33.4520391 L176.387708,33.4520391 Z" id="Shape" fill="#212527"></path>
                    <path d="M84.344821,31.3612866 C73.7417193,31.3612866 66.8721042,35.2441126 62.6905993,41.217691 C58.5090944,34.9454337 51.9381581,31.3612866 43.12713,31.3612866 C33.1213862,31.3612866 26.5504499,35.2441126 23.1156424,40.3216542 L23.1156424,33.4520391 L0.664943519,33.4520391 L0.664943519,108.171549 L23.1156424,108.171549 L23.1156424,66.0578212 C23.1156424,57.246793 27.2971472,52.0199119 34.7641202,52.0199119 C41.9324143,52.0199119 45.5165614,56.7987747 45.5165614,64.2657477 L45.5165614,108.171549 L67.9174804,108.171549 L67.9174804,66.0578212 C67.9174804,57.246793 72.0989853,52.0199119 79.5659583,52.0199119 C86.7342523,52.0199119 90.3183994,56.7987747 90.3183994,64.2657477 L90.3183994,108.171549 L112.769098,108.171549 L112.769098,62.3243347 C112.769098,43.6569022 101.518859,31.3612866 84.344821,31.3612866 Z" id="Shape" fill="#212527"></path>
                </g>
            </g>
        </g>
    </g>
</svg>